STARTFONT 2.1
FONT -FontForge-KiwiSoda-Medium-R-Normal--16-160-72-72-P-74-ISO10646-1
SIZE 16 72 72
FONTBOUNDINGBOX 12 15 -1 -4
COMMENT "Generated by fontforge, http://fontforge.sourceforge.net"
COMMENT "jeti"
STARTPROPERTIES 39
FOUNDRY "FontForge"
FAMILY_NAME "KiwiSoda"
WEIGHT_NAME "Medium"
SLANT "R"
SETWIDTH_NAME "Normal"
ADD_STYLE_NAME ""
PIXEL_SIZE 16
POINT_SIZE 160
RESOLUTION_X 72
RESOLUTION_Y 72
SPACING "P"
AVERAGE_WIDTH 74
CHARSET_REGISTRY "ISO10646"
CHARSET_ENCODING "1"
FONTNAME_REGISTRY ""
CHARSET_COLLECTIONS "ISO10646-1"
FONT_NAME "KiwiSoda"
FACE_NAME "KiwiSoda"
COPYRIGHT "jeti"
FONT_VERSION "001.000"
FONT_ASCENT 12
FONT_DESCENT 4
UNDERLINE_POSITION -2
UNDERLINE_THICKNESS 1
X_HEIGHT 6
CAP_HEIGHT 9
RAW_ASCENT 750
RAW_DESCENT 250
NORM_SPACE 5
RELATIVE_WEIGHT 50
RELATIVE_SETWIDTH 50
SUPERSCRIPT_X 0
SUPERSCRIPT_Y 7
SUPERSCRIPT_SIZE 11
SUBSCRIPT_X 0
SUBSCRIPT_Y 2
SUBSCRIPT_SIZE 11
AVG_LOWERCASE_WIDTH 72
AVG_UPPERCASE_WIDTH 88
ENDPROPERTIES
CHARS 95
STARTCHAR space
ENCODING 32
SWIDTH 312 0
DWIDTH 5 0
BBX 1 1 0 0
BITMAP
00
ENDCHAR
STARTCHAR exclam
ENCODING 33
SWIDTH 250 0
DWIDTH 4 0
BBX 3 11 0 0
BITMAP
60
60
60
E0
C0
C0
80
80
00
C0
80
ENDCHAR
STARTCHAR quotedbl
ENCODING 34
SWIDTH 375 0
DWIDTH 6 0
BBX 5 4 0 6
BITMAP
58
D8
D0
90
ENDCHAR
STARTCHAR numbersign
ENCODING 35
SWIDTH 625 0
DWIDTH 10 0
BBX 9 12 0 -2
BITMAP
1200
1200
3380
3F80
FE00
2400
6580
FF00
6C00
6C00
C800
C000
ENDCHAR
STARTCHAR dollar
ENCODING 36
SWIDTH 437 0
DWIDTH 7 0
BBX 6 14 0 -3
BITMAP
10
18
78
DC
D0
78
2C
24
DC
F8
70
30
30
20
ENDCHAR
STARTCHAR percent
ENCODING 37
SWIDTH 687 0
DWIDTH 11 0
BBX 10 10 0 0
BITMAP
0100
2300
7200
D600
D400
6D80
1BC0
1AC0
32C0
2180
ENDCHAR
STARTCHAR ampersand
ENCODING 38
SWIDTH 562 0
DWIDTH 9 0
BBX 8 11 0 -1
BITMAP
18
2C
2C
18
30
73
CB
8E
FC
77
03
ENDCHAR
STARTCHAR quotesingle
ENCODING 39
SWIDTH 187 0
DWIDTH 3 0
BBX 2 4 0 6
BITMAP
C0
C0
80
80
ENDCHAR
STARTCHAR parenleft
ENCODING 40
SWIDTH 312 0
DWIDTH 5 0
BBX 4 13 0 -3
BITMAP
10
20
40
40
80
80
80
80
80
C0
40
60
20
ENDCHAR
STARTCHAR parenright
ENCODING 41
SWIDTH 312 0
DWIDTH 5 0
BBX 4 13 0 -3
BITMAP
80
40
20
20
10
10
10
10
10
10
20
20
40
ENDCHAR
STARTCHAR asterisk
ENCODING 42
SWIDTH 437 0
DWIDTH 7 0
BBX 6 5 0 4
BITMAP
24
7C
F8
38
6C
ENDCHAR
STARTCHAR plus
ENCODING 43
SWIDTH 500 0
DWIDTH 8 0
BBX 7 6 0 1
BITMAP
10
10
7E
F8
30
20
ENDCHAR
STARTCHAR comma
ENCODING 44
SWIDTH 187 0
DWIDTH 3 0
BBX 2 4 0 -2
BITMAP
C0
C0
80
80
ENDCHAR
STARTCHAR hyphen
ENCODING 45
SWIDTH 375 0
DWIDTH 6 0
BBX 5 3 0 2
BITMAP
18
F8
C0
ENDCHAR
STARTCHAR period
ENCODING 46
SWIDTH 187 0
DWIDTH 3 0
BBX 2 2 0 0
BITMAP
C0
C0
ENDCHAR
STARTCHAR slash
ENCODING 47
SWIDTH 375 0
DWIDTH 6 0
BBX 5 11 0 -1
BITMAP
18
18
30
30
20
60
60
40
40
80
80
ENDCHAR
STARTCHAR zero
ENCODING 48
SWIDTH 437 0
DWIDTH 7 0
BBX 6 10 0 0
BITMAP
38
7C
6C
C4
C4
C4
C4
EC
78
30
ENDCHAR
STARTCHAR one
ENCODING 49
SWIDTH 312 0
DWIDTH 5 0
BBX 4 11 0 -1
BITMAP
30
70
E0
20
20
60
60
60
70
30
30
ENDCHAR
STARTCHAR two
ENCODING 50
SWIDTH 437 0
DWIDTH 7 0
BBX 6 11 0 -1
BITMAP
18
7C
E4
E4
CC
18
30
60
CC
FC
78
ENDCHAR
STARTCHAR three
ENCODING 51
SWIDTH 562 0
DWIDTH 9 0
BBX 8 11 0 -1
BITMAP
DC
FC
08
1E
3F
33
02
06
1C
78
70
ENDCHAR
STARTCHAR four
ENCODING 52
SWIDTH 500 0
DWIDTH 8 0
BBX 7 11 0 -1
BITMAP
06
06
2C
6C
68
4E
FC
D8
18
0C
0C
ENDCHAR
STARTCHAR five
ENCODING 53
SWIDTH 500 0
DWIDTH 8 0
BBX 7 10 0 0
BITMAP
06
7E
F0
C0
BC
E6
C6
9C
38
30
ENDCHAR
STARTCHAR six
ENCODING 54
SWIDTH 500 0
DWIDTH 8 0
BBX 7 10 0 0
BITMAP
0C
1C
30
60
7C
EE
C6
86
CC
78
ENDCHAR
STARTCHAR seven
ENCODING 55
SWIDTH 500 0
DWIDTH 8 0
BBX 7 11 0 -1
BITMAP
06
DE
F6
64
0C
08
18
10
38
38
30
ENDCHAR
STARTCHAR eight
ENCODING 56
SWIDTH 500 0
DWIDTH 8 0
BBX 7 10 0 0
BITMAP
38
6C
4C
78
38
6C
C6
C6
CC
78
ENDCHAR
STARTCHAR nine
ENCODING 57
SWIDTH 437 0
DWIDTH 7 0
BBX 6 11 0 -1
BITMAP
38
64
CC
DC
78
18
10
30
30
38
18
ENDCHAR
STARTCHAR colon
ENCODING 58
SWIDTH 187 0
DWIDTH 3 0
BBX 2 6 0 0
BITMAP
40
C0
00
00
C0
C0
ENDCHAR
STARTCHAR semicolon
ENCODING 59
SWIDTH 187 0
DWIDTH 3 0
BBX 2 9 0 -2
BITMAP
40
C0
80
00
40
C0
C0
40
80
ENDCHAR
STARTCHAR less
ENCODING 60
SWIDTH 500 0
DWIDTH 8 0
BBX 7 6 0 2
BITMAP
06
0E
38
E0
7E
0C
ENDCHAR
STARTCHAR equal
ENCODING 61
SWIDTH 500 0
DWIDTH 8 0
BBX 7 5 0 2
BITMAP
FE
F0
06
7E
F8
ENDCHAR
STARTCHAR greater
ENCODING 62
SWIDTH 500 0
DWIDTH 8 0
BBX 7 6 0 2
BITMAP
C0
F0
3C
0E
70
C0
ENDCHAR
STARTCHAR question
ENCODING 63
SWIDTH 500 0
DWIDTH 8 0
BBX 7 11 0 -1
BITMAP
3C
E6
C6
0C
38
60
70
30
00
30
20
ENDCHAR
STARTCHAR at
ENCODING 64
SWIDTH 750 0
DWIDTH 12 0
BBX 11 12 0 -2
BITMAP
0F00
1180
20C0
4060
4E60
9A60
B260
B6C0
9B80
C000
7C00
3800
ENDCHAR
STARTCHAR A
ENCODING 65
SWIDTH 687 0
DWIDTH 11 0
BBX 10 11 0 -1
BITMAP
3800
7C00
6600
67C0
7FC0
F300
6180
6180
E1C0
E1C0
C180
ENDCHAR
STARTCHAR B
ENCODING 66
SWIDTH 562 0
DWIDTH 9 0
BBX 8 11 0 -1
BITMAP
D8
FC
6C
48
78
7E
47
C3
C3
E6
7C
ENDCHAR
STARTCHAR C
ENCODING 67
SWIDTH 562 0
DWIDTH 9 0
BBX 8 11 0 -1
BITMAP
38
7C
6C
C0
C0
C0
C3
43
63
3E
1C
ENDCHAR
STARTCHAR D
ENCODING 68
SWIDTH 500 0
DWIDTH 8 0
BBX 7 10 0 0
BITMAP
D8
FC
E6
66
46
46
C6
CE
FC
78
ENDCHAR
STARTCHAR E
ENCODING 69
SWIDTH 562 0
DWIDTH 9 0
BBX 8 12 0 -1
BITMAP
C0
E7
FF
7E
60
FC
7C
60
60
FE
C7
03
ENDCHAR
STARTCHAR F
ENCODING 70
SWIDTH 562 0
DWIDTH 9 0
BBX 8 12 0 -1
BITMAP
03
DF
FE
E0
60
7E
E6
20
30
30
70
60
ENDCHAR
STARTCHAR G
ENCODING 71
SWIDTH 562 0
DWIDTH 9 0
BBX 8 15 0 -4
BITMAP
0E
1B
33
60
60
C0
CE
CF
C3
E7
7F
3B
07
0F
06
ENDCHAR
STARTCHAR H
ENCODING 72
SWIDTH 562 0
DWIDTH 9 0
BBX 8 14 0 -3
BITMAP
C0
CC
CC
4C
4F
7F
FC
64
64
66
66
E7
C7
03
ENDCHAR
STARTCHAR I
ENCODING 73
SWIDTH 250 0
DWIDTH 4 0
BBX 3 11 0 -1
BITMAP
C0
E0
60
60
60
40
C0
C0
E0
E0
60
ENDCHAR
STARTCHAR J
ENCODING 74
SWIDTH 625 0
DWIDTH 10 0
BBX 9 11 0 -1
BITMAP
0F00
1F80
3B80
F800
EC00
0600
0200
6200
E600
FC00
7800
ENDCHAR
STARTCHAR K
ENCODING 75
SWIDTH 562 0
DWIDTH 9 0
BBX 8 11 0 0
BITMAP
C0
E6
E6
6C
7C
70
70
78
6F
6F
46
ENDCHAR
STARTCHAR L
ENCODING 76
SWIDTH 562 0
DWIDTH 9 0
BBX 8 11 0 -1
BITMAP
E0
F0
70
30
30
30
60
60
F3
FF
0E
ENDCHAR
STARTCHAR M
ENCODING 77
SWIDTH 562 0
DWIDTH 9 0
BBX 8 14 0 -3
BITMAP
06
C6
EE
6E
6E
7A
DA
DB
DB
C3
E3
63
07
06
ENDCHAR
STARTCHAR N
ENCODING 78
SWIDTH 500 0
DWIDTH 8 0
BBX 7 12 0 -1
BITMAP
04
0E
4E
E6
E6
F6
D6
DC
DC
CC
CC
40
ENDCHAR
STARTCHAR O
ENCODING 79
SWIDTH 562 0
DWIDTH 9 0
BBX 8 10 0 -1
BITMAP
38
6C
66
C6
C3
C3
C3
E7
7E
3C
ENDCHAR
STARTCHAR P
ENCODING 80
SWIDTH 562 0
DWIDTH 9 0
BBX 8 12 0 -2
BITMAP
CE
DF
F3
63
67
7E
60
60
60
E0
E0
C0
ENDCHAR
STARTCHAR Q
ENCODING 81
SWIDTH 562 0
DWIDTH 9 0
BBX 8 13 0 -3
BITMAP
1C
36
63
C3
C3
DB
DA
EE
7C
3C
07
07
02
ENDCHAR
STARTCHAR R
ENCODING 82
SWIDTH 625 0
DWIDTH 10 0
BBX 9 11 0 -1
BITMAP
CC00
FE00
6600
6600
7C00
7000
7000
7980
6F80
E700
C000
ENDCHAR
STARTCHAR S
ENCODING 83
SWIDTH 562 0
DWIDTH 9 0
BBX 8 11 0 -1
BITMAP
1E
7F
E6
C0
7C
1E
03
03
66
7C
38
ENDCHAR
STARTCHAR T
ENCODING 84
SWIDTH 625 0
DWIDTH 10 0
BBX 9 12 0 -1
BITMAP
0700
3F80
F980
D000
1000
1800
1800
1800
1800
1800
3800
3000
ENDCHAR
STARTCHAR U
ENCODING 85
SWIDTH 500 0
DWIDTH 8 0
BBX 7 10 0 0
BITMAP
40
C0
CC
CE
C6
C6
C6
6C
7C
38
ENDCHAR
STARTCHAR V
ENCODING 86
SWIDTH 562 0
DWIDTH 9 0
BBX 8 11 0 -1
BITMAP
C0
E3
67
66
3C
3C
38
18
18
18
10
ENDCHAR
STARTCHAR W
ENCODING 87
SWIDTH 562 0
DWIDTH 9 0
BBX 8 11 0 -1
BITMAP
60
E0
E6
C7
C3
CB
DB
DE
7E
66
64
ENDCHAR
STARTCHAR X
ENCODING 88
SWIDTH 500 0
DWIDTH 8 0
BBX 7 12 0 -2
BITMAP
C4
E6
66
3E
3C
18
38
7C
EC
CC
0E
06
ENDCHAR
STARTCHAR Y
ENCODING 89
SWIDTH 562 0
DWIDTH 9 0
BBX 8 13 0 -2
BITMAP
02
C7
C7
6E
7C
38
30
10
18
18
18
38
30
ENDCHAR
STARTCHAR Z
ENCODING 90
SWIDTH 625 0
DWIDTH 10 0
BBX 9 12 0 -1
BITMAP
0700
DF00
FB00
7300
0600
0E00
0C00
1800
3000
7F00
FF80
C380
ENDCHAR
STARTCHAR bracketleft
ENCODING 91
SWIDTH 312 0
DWIDTH 5 0
BBX 4 13 0 -3
BITMAP
30
F0
C0
80
80
80
80
80
80
80
B0
F0
C0
ENDCHAR
STARTCHAR backslash
ENCODING 92
SWIDTH 375 0
DWIDTH 6 0
BBX 5 12 0 -2
BITMAP
C0
C0
C0
40
40
40
60
20
20
30
18
18
ENDCHAR
STARTCHAR bracketright
ENCODING 93
SWIDTH 375 0
DWIDTH 6 0
BBX 5 12 0 -2
BITMAP
18
78
68
08
08
10
10
10
10
D0
F0
30
ENDCHAR
STARTCHAR asciicircum
ENCODING 94
SWIDTH 437 0
DWIDTH 7 0
BBX 6 4 0 6
BITMAP
10
38
6C
CC
ENDCHAR
STARTCHAR underscore
ENCODING 95
SWIDTH 625 0
DWIDTH 10 0
BBX 9 2 0 -2
BITMAP
7F00
C380
ENDCHAR
STARTCHAR grave
ENCODING 96
SWIDTH 250 0
DWIDTH 4 0
BBX 3 3 0 7
BITMAP
C0
60
20
ENDCHAR
STARTCHAR a
ENCODING 97
SWIDTH 500 0
DWIDTH 8 0
BBX 7 9 0 -1
BITMAP
38
7C
66
06
7E
CC
EC
7E
06
ENDCHAR
STARTCHAR b
ENCODING 98
SWIDTH 500 0
DWIDTH 8 0
BBX 7 10 0 0
BITMAP
C0
E0
60
60
60
7C
66
46
CE
FC
ENDCHAR
STARTCHAR c
ENCODING 99
SWIDTH 500 0
DWIDTH 8 0
BBX 7 7 0 0
BITMAP
38
7C
CC
C0
C6
6E
3C
ENDCHAR
STARTCHAR d
ENCODING 100
SWIDTH 500 0
DWIDTH 8 0
BBX 7 11 0 0
BITMAP
06
0E
0C
08
08
78
D8
C8
CC
FE
76
ENDCHAR
STARTCHAR e
ENCODING 101
SWIDTH 500 0
DWIDTH 8 0
BBX 7 7 0 0
BITMAP
38
6C
CC
F8
C6
6E
3C
ENDCHAR
STARTCHAR f
ENCODING 102
SWIDTH 437 0
DWIDTH 7 0
BBX 7 12 -1 -2
BITMAP
38
7C
6C
6C
20
7C
FE
16
10
30
70
60
ENDCHAR
STARTCHAR g
ENCODING 103
SWIDTH 562 0
DWIDTH 9 0
BBX 8 13 0 -4
BITMAP
03
07
1C
3E
66
C4
CC
78
3F
73
63
3E
1C
ENDCHAR
STARTCHAR h
ENCODING 104
SWIDTH 437 0
DWIDTH 7 0
BBX 6 11 0 -1
BITMAP
C0
C0
C0
C0
58
7C
6C
4C
CC
CC
80
ENDCHAR
STARTCHAR i
ENCODING 105
SWIDTH 250 0
DWIDTH 4 0
BBX 3 11 0 -1
BITMAP
40
C0
C0
00
80
C0
C0
C0
C0
E0
60
ENDCHAR
STARTCHAR j
ENCODING 106
SWIDTH 312 0
DWIDTH 5 0
BBX 4 13 0 -3
BITMAP
20
60
40
00
60
60
20
30
10
30
70
E0
C0
ENDCHAR
STARTCHAR k
ENCODING 107
SWIDTH 500 0
DWIDTH 8 0
BBX 7 11 0 -1
BITMAP
C0
C0
60
6C
6C
78
70
D8
C8
CE
C6
ENDCHAR
STARTCHAR l
ENCODING 108
SWIDTH 250 0
DWIDTH 4 0
BBX 3 11 0 -1
BITMAP
C0
E0
60
60
60
C0
C0
C0
C0
60
60
ENDCHAR
STARTCHAR m
ENCODING 109
SWIDTH 625 0
DWIDTH 10 0
BBX 9 8 0 -1
BITMAP
C600
F700
7980
4980
D980
DB00
DB00
1000
ENDCHAR
STARTCHAR n
ENCODING 110
SWIDTH 500 0
DWIDTH 8 0
BBX 7 8 0 -1
BITMAP
D8
FC
E6
66
66
E6
CE
0C
ENDCHAR
STARTCHAR o
ENCODING 111
SWIDTH 437 0
DWIDTH 7 0
BBX 6 7 0 0
BITMAP
38
6C
C4
C4
CC
FC
78
ENDCHAR
STARTCHAR p
ENCODING 112
SWIDTH 437 0
DWIDTH 7 0
BBX 6 9 0 -2
BITMAP
B8
EC
4C
4C
78
60
60
E0
C0
ENDCHAR
STARTCHAR q
ENCODING 113
SWIDTH 437 0
DWIDTH 7 0
BBX 6 11 0 -4
BITMAP
38
6C
44
CC
F8
78
08
18
18
1C
0C
ENDCHAR
STARTCHAR r
ENCODING 114
SWIDTH 375 0
DWIDTH 6 0
BBX 5 7 0 0
BITMAP
B8
D8
40
60
60
E0
C0
ENDCHAR
STARTCHAR s
ENCODING 115
SWIDTH 437 0
DWIDTH 7 0
BBX 6 8 0 0
BITMAP
38
7C
CC
60
38
CC
FC
78
ENDCHAR
STARTCHAR t
ENCODING 116
SWIDTH 375 0
DWIDTH 6 0
BBX 5 11 0 -1
BITMAP
18
38
30
F0
78
60
60
60
60
70
30
ENDCHAR
STARTCHAR u
ENCODING 117
SWIDTH 437 0
DWIDTH 7 0
BBX 6 7 0 0
BITMAP
18
DC
CC
CC
CC
EC
78
ENDCHAR
STARTCHAR v
ENCODING 118
SWIDTH 437 0
DWIDTH 7 0
BBX 6 9 0 -1
BITMAP
08
1C
DC
CC
CC
68
78
30
20
ENDCHAR
STARTCHAR w
ENCODING 119
SWIDTH 562 0
DWIDTH 9 0
BBX 8 7 0 0
BITMAP
06
C7
C3
93
DA
FE
64
ENDCHAR
STARTCHAR x
ENCODING 120
SWIDTH 500 0
DWIDTH 8 0
BBX 7 8 0 -1
BITMAP
C6
6E
3C
38
78
CC
CC
0C
ENDCHAR
STARTCHAR y
ENCODING 121
SWIDTH 437 0
DWIDTH 7 0
BBX 6 10 0 -4
BITMAP
D8
DC
CC
CC
6C
38
18
30
E0
C0
ENDCHAR
STARTCHAR z
ENCODING 122
SWIDTH 562 0
DWIDTH 9 0
BBX 8 8 0 -1
BITMAP
3C
FC
CC
18
33
67
7E
70
ENDCHAR
STARTCHAR braceleft
ENCODING 123
SWIDTH 437 0
DWIDTH 7 0
BBX 6 12 0 -2
BITMAP
1C
30
30
30
10
30
E0
30
10
10
08
04
ENDCHAR
STARTCHAR bar
ENCODING 124
SWIDTH 187 0
DWIDTH 3 0
BBX 2 12 0 -2
BITMAP
80
80
80
80
80
80
80
C0
C0
C0
C0
40
ENDCHAR
STARTCHAR braceright
ENCODING 125
SWIDTH 375 0
DWIDTH 6 0
BBX 5 12 0 -2
BITMAP
C0
20
20
20
20
30
18
30
20
20
60
C0
ENDCHAR
STARTCHAR asciitilde
ENCODING 126
SWIDTH 500 0
DWIDTH 8 0
BBX 7 3 0 3
BITMAP
66
F6
9C
ENDCHAR
ENDFONT
